inDegrees=no
num_controls=7
num_derivatives=13
num_iterations=118
num_multipliers=7
num_parameters=0
num_slacks=7
num_states=26
objective=5.686559
objective_accelerations=0.639379
objective_balance=0.050898
objective_effort=0.513755
objective_height=4.379672
objective_ligament=0.102854
solver_duration=1392.176118
status=Solve_Succeeded
success=true
DataType=double
version=3
OpenSimVersion=4.4-2022-07-23-0e9fedc
endheader
time	/jointset/ground_pelvis/pelvis_tilt/value	/jointset/ground_pelvis/pelvis_tx/value	/jointset/ground_pelvis/pelvis_ty/value	/jointset/hip_l/hip_flexion_l/value	/jointset/hip_l/hip_adduction_l/value	/jointset/hip_l/hip_rotation_l/value	/jointset/back/lumbar_extension/value	/jointset/patellofemoral_l/patellar_flexion_l/value	/jointset/knee_l/knee_flexion_l/value	/jointset/knee_l/knee_adduction_l/value	/jointset/knee_l/knee_rotation_l/value	/jointset/ankle_l/ankle_angle_l/value	/jointset/subtalar_l/subtalar_angle_l/value	/jointset/ground_pelvis/pelvis_tilt/speed	/jointset/ground_pelvis/pelvis_tx/speed	/jointset/ground_pelvis/pelvis_ty/speed	/jointset/hip_l/hip_flexion_l/speed	/jointset/hip_l/hip_adduction_l/speed	/jointset/hip_l/hip_rotation_l/speed	/jointset/back/lumbar_extension/speed	/jointset/patellofemoral_l/patellar_flexion_l/speed	/jointset/knee_l/knee_flexion_l/speed	/jointset/knee_l/knee_adduction_l/speed	/jointset/knee_l/knee_rotation_l/speed	/jointset/ankle_l/ankle_angle_l/speed	/jointset/subtalar_l/subtalar_angle_l/speed	/forceset/tau_hip_flexion_l	/forceset/tau_hip_adduction_l	/forceset/tau_hip_rotation_l	/forceset/tau_knee_flexion_l	/forceset/tau_ankle_angle_l	/forceset/tau_subtalar_angle_l	/forceset/tau_lumbar_extension	lambda_cid13_p0	lambda_cid13_p1	lambda_cid13_p2	lambda_cid13_p3	lambda_cid13_p4	lambda_cid13_p5	lambda_cid14_p0	/jointset/ground_pelvis/pelvis_tilt/accel	/jointset/ground_pelvis/pelvis_tx/accel	/jointset/ground_pelvis/pelvis_ty/accel	/jointset/hip_l/hip_flexion_l/accel	/jointset/hip_l/hip_adduction_l/accel	/jointset/hip_l/hip_rotation_l/accel	/jointset/back/lumbar_extension/accel	/jointset/patellofemoral_l/patellar_flexion_l/accel	/jointset/knee_l/knee_flexion_l/accel	/jointset/knee_l/knee_adduction_l/accel	/jointset/knee_l/knee_rotation_l/accel	/jointset/ankle_l/ankle_angle_l/accel	/jointset/subtalar_l/subtalar_angle_l/accel	gamma_cid13_p0	gamma_cid13_p1	gamma_cid13_p2	gamma_cid13_p3	gamma_cid13_p4	gamma_cid13_p5	gamma_cid14_p0
1.5	-0.5089468736859141	-0.1154758564229684	0.7488007904280449	1.355945060996586	-0.3116157116264091	-0.06921887260743878	-0.3524187206702484	0.6374975321488615	0.6374975321488009	-0.1738214986088901	0.1733292553929636	-0.05198181339730409	-0.06796449641280147	0.902940917179488	0.353541082640537	0.5303948710229252	-2.555953561111328	0.05916592887321621	-0.5291161467916484	0.5556087864798605	-1.59613857728543	-1.596138577285864	0.003567483099821333	-0.01085967985260327	-0.007856950113419013	0.07276663371560584	-0.2796875297402138	0.01493658025223928	-0.01933949917256692	-0.1884646137147936	0.1995951443691457	0.03728655924367469	0.2427913188418119	24.47499186609441	-22.73544490111025	5.79969677538806	-9.673994406687655	-610.9698625177249	-55.6548902947514	-31.15252481002564	0.7269139730276815	0.822064578609125	-0.2580214219909647	-1.733772271907909	0.4830654857855221	-0.1859152504219419	1.856827631412133	-1.04415045124098	-1.0441504512409	0.01853451723207077	-0.07734204507791116	0.05246784795510227	0.4803039909953553	-9.760839290387179e-09	7.620507645045273e-07	-1.818786124766951e-07	1.530161645348963e-07	1.808195700372788e-07	-1.988487918466725e-07	1.368763298731627e-07
1.51	-0.4998815426216267	-0.1118996092127178	0.7540908271296597	1.330301150107554	-0.3110008739165491	-0.0745195274640767	-0.3467712711388687	0.6214861890373877	0.6214861890373325	-0.1737863222700739	0.1732182628616479	-0.05205775729076193	-0.06721378067077448	0.90999784323991	0.3616703546236829	0.52750672215857	-2.572484657527397	0.0638003893582357	-0.5309386050568861	0.5738195254935533	-1.605911682196357	-1.605911682196527	0.003458332312465914	-0.01134557039397993	-0.007313229558418662	0.07737593527288451	-0.2706890979272555	0.01446606471472575	-0.01923076755224001	-0.1872090875679519	0.1972801547670718	0.03650619119349093	0.2359870076884917	24.01242084133677	-22.43654821118794	5.890267050468323	-9.36127895632977	-605.99395330671	-55.87128948430373	-31.9972954785581	0.6759748014821789	0.8026908331811384	-0.3200347243048481	-1.561170685181608	0.4533419595417413	-0.1688260913739507	1.793957890159064	-0.9111641293017556	-0.9111641292619754	-0.02690336303935154	-0.0351280133444079	0.05811264407316736	0.4510457393713667	-1.649428204821296e-08	8.100862925887419e-07	-1.729571882803064e-07	1.610606805348536e-07	1.900633297146992e-07	-1.875765561878764e-07	1.390701482787762e-07
1.52	-0.4907494637209736	-0.1082432028176335	0.7593488177215014	1.304502249782587	-0.310339750475904	-0.07983608989870485	-0.3409435620465979	0.6053836601531527	0.6053836601531144	-0.1737524901364287	0.1731022283339523	-0.05212770628170078	-0.06641701141291952	0.9162904844576769	0.3695729196072819	0.5239856490683373	-2.586951448292474	0.0684230750305086	-0.532297662394084	0.5916606986597217	-1.614375731838621	-1.614375731838526	0.003298642072334	-0.01186807912244475	-0.006657969611388696	0.081977336881263	-0.2616906661143596	0.01399554917726503	-0.01912203593221798	-0.1859535614210525	0.1949651651650314	0.03572582314336487	0.2291826965350775	23.53994240698858	-22.1376588661987	5.982828206964027	-9.011370349697941	-601.157543179822	-56.13423247242935	-32.82004874736852	0.5740570044958768	0.7767231787004607	-0.3846062671662511	-1.320911141709636	0.4807105232361445	-0.09323506481389346	1.782914461906875	-0.7823393975082195	-0.7823393975080906	0.008426626676517751	-0.0846656824954775	0.07477572636201014	0.478724001215424	-2.320598956252555e-08	8.543613261572894e-07	-1.646201363265151e-07	1.681034821186405e-07	1.989922364327333e-07	-1.748180799376632e-07	1.406084664825522e-07
1.53	-0.4815582737471107	-0.104508979540748	0.7645684802859043	1.2785689997416	-0.3096325090155728	-0.08516409078549693	-0.3349394516177292	0.5892030801199539	0.5892030801198934	-0.1737204850269059	0.1729809096684588	-0.05219054413635913	-0.06557431390578247	0.9218154086731408	0.3772253746606902	0.5198450603111198	-2.599344443043111	0.07302062589015369	-0.5332289637526773	0.6090878441411441	-1.621515154612662	-1.621515154612658	0.00309684175530608	-0.01240059815622497	-0.005890558030528083	0.08655850189554978	-0.2526838929089792	0.01338402508740935	-0.01903413474035347	-0.1846156107170444	0.1926057875680775	0.03484420144743009	0.2223118385859435	23.04961836622315	-21.79461063975172	6.071707793967052	-8.633839174570289	-596.3299811404366	-56.32264931202935	-33.61720622886743	0.5219037851412115	0.7525879610876001	-0.4440132670296099	-1.145363996939849	0.4484628136755859	-0.0818883958171715	1.711583144422171	-0.6460040696387405	-0.6460040696528239	-0.03514597161104685	-0.0381887980170102	0.08057831366402679	0.4471383983243032	-2.989460338060539e-08	8.946408343029407e-07	-1.569039798804834e-07	1.740819621352464e-07	2.075866118814192e-07	-1.604804730590693e-07	1.414503157218758e-07
1.54	-0.4723157958000812	-0.1006996154548444	0.7697436913453298	1.252522445682056	-0.3088794549573744	-0.09049916683072148	-0.3287632760234168	0.5729578537885622	0.5729578537884837	-0.1736906304427608	0.1728541370557509	-0.05224513698724595	-0.06468593961914483	0.9265480790913789	0.3846010814109031	0.5150953480728852	-2.609612252001739	0.07758559460363829	-0.5337126940886526	0.6260737317490892	-1.627304991478173	-1.627304991478263	0.00286853700956679	-0.01295886855792138	-0.005008968861017703	0.09111269278140889	-0.2436771197035945	0.01277250099767641	-0.018946233548929	-0.1832776600128957	0.1902464099712045	0.03396257975162937	0.2154409806367435	22.54896192144851	-21.45127425779905	6.162278633689398	-8.214221062901283	-591.6454142718377	-56.55776811871355	-34.38528067495594	0.4156062450501698	0.7213735180622154	-0.5064309633694588	-0.8958739833078738	0.4741940940039773	-0.003720860290213334	1.694662887211132	-0.512422215802555	-0.5124222158024914	0.003125740933983654	-0.08981595607864704	0.09761124409308974	0.4733291755300263	-3.69461923789916e-08	9.33773798849912e-07	-1.471124353696293e-07	1.793629059336086e-07	2.162414076540627e-07	-1.451823822554758e-07	1.416168177038643e-07
